<?xml version="1.0" standalone="no"?><!DOCTYPE svg PUBLIC "-//W3C//DTD SVG 1.1//EN" "http://www.w3.org/Graphics/SVG/1.1/DTD/svg11.dtd"><svg t="1660313658979" class="icon" viewBox="0 0 1024 1024" version="1.1" xmlns="http://www.w3.org/2000/svg" p-id="6171" xmlns:xlink="http://www.w3.org/1999/xlink" width="200" height="200"><defs><style type="text/css">@font-face { font-family: feedback-iconfont; src: url("//at.alicdn.com/t/font_1031158_u69w8yhxdu.woff2?t=1630033759944") format("woff2"), url("//at.alicdn.com/t/font_1031158_u69w8yhxdu.woff?t=1630033759944") format("woff"), url("//at.alicdn.com/t/font_1031158_u69w8yhxdu.ttf?t=1630033759944") format("truetype"); }
</style></defs><path d="M347.099 762.937c-45.642 0-82.57 37.343-82.57 82.985s36.928 82.985 82.57 82.985 82.985-37.343 82.985-82.985-37.343-82.985-82.985-82.985zM98.143 99.055v82.985h82.985l149.373 314.929-56.015 101.657c-6.639 11.618-10.373 25.31-10.373 39.833 0 45.642 37.343 82.985 82.985 82.985H845.01v-82.985H364.526c-5.809 0-10.373-4.564-10.373-10.373l1.245-4.979 37.343-67.633h309.12c31.119 0 58.505-17.012 72.612-42.737L923.017 243.45c3.319-5.809 4.979-12.863 4.979-19.916 0-22.821-18.672-41.493-41.493-41.493H272.827l-39.003-82.985-135.681-0.001z m663.882 663.882c-45.642 0-82.57 37.343-82.57 82.985s36.928 82.985 82.57 82.985 82.985-37.343 82.985-82.985-37.343-82.985-82.985-82.985z" fill="#515151" p-id="6172"></path></svg>