<?xml version="1.0" standalone="no"?><!DOCTYPE svg PUBLIC "-//W3C//DTD SVG 1.1//EN" "http://www.w3.org/Graphics/SVG/1.1/DTD/svg11.dtd"><svg t="1661311279019" class="icon" viewBox="0 0 1024 1024" version="1.1" xmlns="http://www.w3.org/2000/svg" p-id="3321" xmlns:xlink="http://www.w3.org/1999/xlink" width="200" height="200"><defs><style type="text/css">@font-face { font-family: feedback-iconfont; src: url("//at.alicdn.com/t/font_1031158_u69w8yhxdu.woff2?t=1630033759944") format("woff2"), url("//at.alicdn.com/t/font_1031158_u69w8yhxdu.woff?t=1630033759944") format("woff"), url("//at.alicdn.com/t/font_1031158_u69w8yhxdu.ttf?t=1630033759944") format("truetype"); }
</style></defs><path d="M664.608723 120.804367 93.448322 120.804367c-13.671371 0-24.840758 10.900258-25.206078 24.537859l0 76.92909c0.364297 13.637602 11.533684 24.537859 25.206078 24.537859l571.160401 0c13.900591 0 25.222451-11.266601 25.222451-25.223474l0-75.556836C689.832198 132.070968 678.509315 120.804367 664.608723 120.804367z" p-id="3322"></path><path d="M93.442182 557.577035l495.547283 0c13.956873 0 25.223474-11.266601 25.223474-25.223474l0-75.556836c0-13.956873-11.266601-25.223474-25.223474-25.223474L93.442182 431.573249c-13.589506 0-24.709775 10.770298-25.199938 24.293289l0 77.415161C68.733431 546.805714 79.851653 557.577035 93.442182 557.577035z" p-id="3323"></path><path d="M664.608723 742.371808 93.448322 742.371808c-13.671371 0-24.840758 10.900258-25.206078 24.537859l0 76.92909c0.364297 13.637602 11.533684 24.537859 25.206078 24.537859l571.160401 0c13.900591 0 25.222451-11.266601 25.222451-25.223474l0-75.556836C689.832198 753.638409 678.509315 742.371808 664.608723 742.371808z" p-id="3324"></path><path d="M952.532295 480.136292 742.957139 318.316789c-11.658528-9.416464-33.742499-4.092201-33.742499 23.877827l0 309.62585c0 33.966603 22.083971 33.911344 33.742499 23.877827l209.575156-161.819502C964.134541 505.135662 963.349665 489.497497 952.532295 480.136292z" p-id="3325"></path></svg>