<?xml version="1.0" standalone="no"?><!DOCTYPE svg PUBLIC "-//W3C//DTD SVG 1.1//EN" "http://www.w3.org/Graphics/SVG/1.1/DTD/svg11.dtd"><svg t="1660313688530" class="icon" viewBox="0 0 1024 1024" version="1.1" xmlns="http://www.w3.org/2000/svg" p-id="8563" xmlns:xlink="http://www.w3.org/1999/xlink" width="200" height="200"><defs><style type="text/css">@font-face { font-family: feedback-iconfont; src: url("//at.alicdn.com/t/font_1031158_u69w8yhxdu.woff2?t=1630033759944") format("woff2"), url("//at.alicdn.com/t/font_1031158_u69w8yhxdu.woff?t=1630033759944") format("woff"), url("//at.alicdn.com/t/font_1031158_u69w8yhxdu.ttf?t=1630033759944") format("truetype"); }
</style></defs><path d="M745.429333 655.658667c1.173333 0.746667 2.325333 1.578667 3.413334 2.496l114.410666 96a32 32 0 0 1-41.152 49.024l-114.389333-96a32 32 0 0 1-6.208-6.976A297.429333 297.429333 0 0 1 512 768c-164.949333 0-298.666667-133.717333-298.666667-298.666667S347.050667 170.666667 512 170.666667s298.666667 133.717333 298.666667 298.666666a297.386667 297.386667 0 0 1-65.237334 186.325334zM512 704c129.6 0 234.666667-105.066667 234.666667-234.666667s-105.066667-234.666667-234.666667-234.666666-234.666667 105.066667-234.666667 234.666666 105.066667 234.666667 234.666667 234.666667z" fill="#2A2A37" p-id="8564"></path><path d="M454.762667 456.341333l-77.013334 77.013334a21.333333 21.333333 0 0 1-30.165333-30.165334l90.517333-90.517333a21.333333 21.333333 0 0 1 31.701334-1.621333l77.162666 77.184 97.984-97.984a21.333333 21.333333 0 0 1 30.165334 30.165333l-105.6 105.6a21.248 21.248 0 0 1-8.832 5.333333 21.333333 21.333333 0 0 1-30.549334 0.384l-75.370666-75.392z" fill="#2A2A37" p-id="8565"></path></svg>