<?xml version="1.0" standalone="no"?><!DOCTYPE svg PUBLIC "-//W3C//DTD SVG 1.1//EN" "http://www.w3.org/Graphics/SVG/1.1/DTD/svg11.dtd"><svg t="1660313666728" class="icon" viewBox="0 0 1024 1024" version="1.1" xmlns="http://www.w3.org/2000/svg" p-id="7146" xmlns:xlink="http://www.w3.org/1999/xlink" width="200" height="200"><defs><style type="text/css">@font-face { font-family: feedback-iconfont; src: url("//at.alicdn.com/t/font_1031158_u69w8yhxdu.woff2?t=1630033759944") format("woff2"), url("//at.alicdn.com/t/font_1031158_u69w8yhxdu.woff?t=1630033759944") format("woff"), url("//at.alicdn.com/t/font_1031158_u69w8yhxdu.ttf?t=1630033759944") format("truetype"); }
</style></defs><path d="M423.253333 852.309333m-74.922666 0a74.922667 74.922667 0 1 0 149.845333 0 74.922667 74.922667 0 1 0-149.845333 0Z" p-id="7147"></path><path d="M732.16 852.309333m-74.922667 0a74.922667 74.922667 0 1 0 149.845334 0 74.922667 74.922667 0 1 0-149.845334 0Z" p-id="7148"></path><path d="M803.84 708.266667H370.858667c-45.738667 0-85.504-30.890667-96.597334-75.093334l-103.082666-448.853333c-3.413333-13.141333-15.872-22.869333-30.378667-22.869333H87.04c-18.773333 0-34.133333-15.36-34.133333-34.133334s15.36-34.133333 34.133333-34.133333h53.930667c45.738667 0 85.504 30.890667 96.597333 75.264l102.912 448.682667c3.413333 13.141333 15.872 22.869333 30.378667 22.869333H803.84c13.482667 0 25.6-8.533333 29.866667-21.504l86.698666-301.056c3.754667-11.093333 2.218667-21.504-3.754666-29.866667s-15.36-13.141333-25.6-13.141333H393.898667c-18.773333 0-34.133333-15.36-34.133334-34.133333s15.36-34.133333 34.133334-34.133334H890.88c32.426667 0 61.952 15.189333 81.066667 41.472 18.944 26.453333 23.893333 59.221333 13.482666 89.941334l-86.698666 301.056c-13.994667 42.325333-52.053333 69.632-94.890667 69.632z" p-id="7149"></path></svg>