<?xml version="1.0" standalone="no"?><!DOCTYPE svg PUBLIC "-//W3C//DTD SVG 1.1//EN" "http://www.w3.org/Graphics/SVG/1.1/DTD/svg11.dtd"><svg t="1660317621143" class="icon" viewBox="0 0 1024 1024" version="1.1" xmlns="http://www.w3.org/2000/svg" p-id="3231" xmlns:xlink="http://www.w3.org/1999/xlink" width="200" height="200"><defs><style type="text/css">@font-face { font-family: feedback-iconfont; src: url("//at.alicdn.com/t/font_1031158_u69w8yhxdu.woff2?t=1630033759944") format("woff2"), url("//at.alicdn.com/t/font_1031158_u69w8yhxdu.woff?t=1630033759944") format("woff"), url("//at.alicdn.com/t/font_1031158_u69w8yhxdu.ttf?t=1630033759944") format("truetype"); }
</style></defs><path d="M925.4 399.2c0.4 2.4 0.6 4.7 0.6 7.2v505.3c0 1.4-0.1 2.7-0.2 4.1-1.3 23.6-20.8 42.1-44.5 42.2H141c-24.6 0-44.6-20-44.6-44.6v-507c0-2.3 0.2-4.6 0.5-6.8-0.3-2.6-0.5-5.2-0.5-7.8V362l-0.2-0.1 116.9-202.3c10.2-17.8 28.9-29 49.4-29.6 4.3-1.3 8.7-2 13.2-2h470.5c4.8 0 9.6 0.8 14.2 2.3 20.3 0.8 38.9 12 49 29.6l116.8 202.3-0.6 0.4v29.2c0.2 2.5 0.1 5-0.2 7.4z m-79.4-36c-1.7-2.5-3.2-5.2-4.6-8L758.2 186H281.4l-87.2 177.2H846z m6.1 60H170.4v474.3h681.7V423.2z" p-id="3232"></path><path d="M739.3 665.8h-240c-15.4 0-28-12.6-28-28s12.6-28 28-28h240c15.4 0 28 12.6 28 28s-12.6 28-28 28zM481.7 407.6V144.8c0-1.1 0.9-2 2-2H539c1.1 0 2 0.9 2 2v262.8c0 1.1-0.9 2-2 2h-55.3c-1.1 0-2-0.9-2-2zM739.8 793.9h-390c-15.4 0-28-12.6-28-28s12.6-28 28-28h390c15.4 0 28 12.6 28 28s-12.6 28-28 28z" p-id="3233"></path></svg>