<?xml version="1.0" standalone="no"?><!DOCTYPE svg PUBLIC "-//W3C//DTD SVG 1.1//EN" "http://www.w3.org/Graphics/SVG/1.1/DTD/svg11.dtd"><svg t="1661606457501" class="icon" viewBox="0 0 1024 1024" version="1.1" xmlns="http://www.w3.org/2000/svg" p-id="5216" xmlns:xlink="http://www.w3.org/1999/xlink" width="200" height="200"><path d="M830.92992 299.392H193.06496C133.59104 299.3664 85.35552 347.56608 85.33504 407.04v425.34912c0 56.704 48.21504 104.87296 107.73504 104.87296h637.86496c59.47904 0.02048 107.70944-48.16896 107.74016-107.648V404.26496c-2.82624-56.704-51.03616-104.87296-107.74528-104.87296z m46.30016 530.13504c-0.01536 25.5488-20.76672 46.29504-46.2592 46.29504H193.06496c-25.09312 0-46.29504-19.8912-46.29504-43.43296V407.12704c0.01024-25.55392 20.75648-46.29504 46.24896-46.29504h637.91104c23.09632 0 44.44672 21.02272 46.30016 45.2864v423.40864zM667.008 253.44V194.47296c0-26.86976-21.8624-48.72704-48.73216-48.72704H405.67296c-26.86976 0-48.72704 21.85728-48.72704 48.72704V250.624h-0.04096v2.816H292.82304V194.47296c0.02048-62.26432 50.62656-112.85504 112.80896-112.85504H618.496l0.39424 0.0256c29.60384 0 57.9072 11.74016 79.19616 33.0496a112.05632 112.05632 0 0 1 33.00352 79.78496V253.44h-64.08192z" p-id="5217"></path><path d="M669.35296 565.888h-107.73504V458.15296H453.888v107.73504H351.83104v107.72992h107.72992v107.73504H567.296v-107.73504h107.73504v-107.72992z" p-id="5218"></path></svg>