<?xml version="1.0" standalone="no"?><!DOCTYPE svg PUBLIC "-//W3C//DTD SVG 1.1//EN" "http://www.w3.org/Graphics/SVG/1.1/DTD/svg11.dtd"><svg t="1660313705033" class="icon" viewBox="0 0 1024 1024" version="1.1" xmlns="http://www.w3.org/2000/svg" p-id="9329" xmlns:xlink="http://www.w3.org/1999/xlink" width="200" height="200"><defs><style type="text/css">@font-face { font-family: feedback-iconfont; src: url("//at.alicdn.com/t/font_1031158_u69w8yhxdu.woff2?t=1630033759944") format("woff2"), url("//at.alicdn.com/t/font_1031158_u69w8yhxdu.woff?t=1630033759944") format("woff"), url("//at.alicdn.com/t/font_1031158_u69w8yhxdu.ttf?t=1630033759944") format("truetype"); }
</style></defs><path d="M412.842667 798.72l96.085333-97.109333S363.690667 671.744 312.149333 529.066667a292.181333 292.181333 0 0 1-13.994666-55.978667 80.896 80.896 0 0 0-78.165334-68.266667s17.066667-58.368 73.386667-48.810666c0 0 24.576 2.389333 71.509333 48.298666 0 0 58.88 56.832 106.154667 17.92l146.261333-159.402666s48.128-39.765333 79.872-17.066667l-119.466666 138.752 5.802666 5.290667 109.568-119.466667a53.930667 53.930667 0 0 1 68.266667 0l-134.997333 150.869333 6.314666 5.290667L733.866667 313.685333a41.130667 41.130667 0 0 1 57.002666-10.410666 37.888 37.888 0 0 1 9.557334 9.216l-130.730667 149.674666 6.144 4.778667 70.656-75.605333s38.058667-31.573333 64.170667-1.536L429.568 810.496l57.002667 69.973333L757.76 584.192l57.856-63.146667s102.4-111.445333 66.56-236.885333c0 0-32.938667-119.466667-155.818667-136.533333a281.088 281.088 0 0 0-87.893333 0s-65.877333 22.869333-187.733333 164.693333c0 0-22.698667 35.84-62.293334-10.752 0 0-59.392-53.589333-107.349333-53.589333a152.405333 152.405333 0 0 0-146.261333 144.213333 194.901333 194.901333 0 0 0 43.008 114.346667z" fill="#bfbfbf" p-id="9330"></path></svg>